<mxfile host="app.diagrams.net" agent="Mozilla/5.0 (Macintosh; Intel Mac OS X 10_15_7) AppleWebKit/537.36 (KHTML, like Gecko) Chrome/127.0.0.0 Safari/537.36" version="24.7.7">
  <diagram name="Schéma recrutement" id="yyfjAwbgxp0O6cG3YgLU">
    <mxGraphModel dx="954" dy="580" grid="1" gridSize="10" guides="1" tooltips="1" connect="1" arrows="1" fold="1" page="1" pageScale="1" pageWidth="827" pageHeight="1169" math="0" shadow="0">
      <root>
        <mxCell id="0" />
        <mxCell id="1" parent="0" />
        <mxCell id="gP5jbIThmRi-PLpS_TMl-3" value="" style="edgeStyle=orthogonalEdgeStyle;rounded=0;orthogonalLoop=1;jettySize=auto;html=1;" edge="1" parent="1" source="gP5jbIThmRi-PLpS_TMl-1" target="gP5jbIThmRi-PLpS_TMl-2">
          <mxGeometry relative="1" as="geometry" />
        </mxCell>
        <mxCell id="gP5jbIThmRi-PLpS_TMl-1" value="Expression du besoin" style="text;html=1;align=center;verticalAlign=middle;whiteSpace=wrap;rounded=1;strokeColor=default;" vertex="1" parent="1">
          <mxGeometry x="40" y="280" width="110" height="40" as="geometry" />
        </mxCell>
        <mxCell id="gP5jbIThmRi-PLpS_TMl-5" value="" style="edgeStyle=orthogonalEdgeStyle;rounded=0;orthogonalLoop=1;jettySize=auto;html=1;" edge="1" parent="1" source="gP5jbIThmRi-PLpS_TMl-2" target="gP5jbIThmRi-PLpS_TMl-4">
          <mxGeometry relative="1" as="geometry" />
        </mxCell>
        <mxCell id="gP5jbIThmRi-PLpS_TMl-2" value="Prospection" style="text;html=1;align=center;verticalAlign=middle;whiteSpace=wrap;rounded=1;strokeColor=default;" vertex="1" parent="1">
          <mxGeometry x="170" y="280" width="110" height="40" as="geometry" />
        </mxCell>
        <mxCell id="gP5jbIThmRi-PLpS_TMl-7" value="" style="edgeStyle=orthogonalEdgeStyle;rounded=0;orthogonalLoop=1;jettySize=auto;html=1;" edge="1" parent="1" source="gP5jbIThmRi-PLpS_TMl-4" target="gP5jbIThmRi-PLpS_TMl-6">
          <mxGeometry relative="1" as="geometry" />
        </mxCell>
        <mxCell id="gP5jbIThmRi-PLpS_TMl-4" value="Sélection" style="text;html=1;align=center;verticalAlign=middle;whiteSpace=wrap;rounded=1;strokeColor=default;" vertex="1" parent="1">
          <mxGeometry x="303.5" y="280" width="110" height="40" as="geometry" />
        </mxCell>
        <mxCell id="gP5jbIThmRi-PLpS_TMl-9" value="" style="edgeStyle=orthogonalEdgeStyle;rounded=0;orthogonalLoop=1;jettySize=auto;html=1;" edge="1" parent="1" source="gP5jbIThmRi-PLpS_TMl-6" target="gP5jbIThmRi-PLpS_TMl-8">
          <mxGeometry relative="1" as="geometry" />
        </mxCell>
        <mxCell id="gP5jbIThmRi-PLpS_TMl-6" value="Négociation" style="text;html=1;align=center;verticalAlign=middle;whiteSpace=wrap;rounded=1;strokeColor=default;" vertex="1" parent="1">
          <mxGeometry x="440" y="280" width="110" height="40" as="geometry" />
        </mxCell>
        <mxCell id="gP5jbIThmRi-PLpS_TMl-8" value="Période d&#39;essai" style="text;html=1;align=center;verticalAlign=middle;whiteSpace=wrap;rounded=1;strokeColor=default;" vertex="1" parent="1">
          <mxGeometry x="580" y="280" width="110" height="40" as="geometry" />
        </mxCell>
      </root>
    </mxGraphModel>
  </diagram>
</mxfile>
